<svg xmlns="http://www.w3.org/2000/svg" version="1.1" xmlns:xlink="http://www.w3.org/1999/xlink" viewBox="0 0 200 200"><rect width="200" height="200" fill="url('#gradient')"></rect><defs><linearGradient id="gradient" gradientTransform="rotate(72 0.5 0.5)"><stop offset="0%" stop-color="#2f2445"></stop><stop offset="100%" stop-color="#666f8d"></stop></linearGradient></defs><g><g fill="#eae7ef" transform="matrix(1.3079663865546216,0,0,1.3079663865546216,41.75988904063442,107.15332592299005)" stroke="#41375b" stroke-width="0"><path d="M10.73-5.36L10.73-5.21Q10.73-2.74 9.62-1.27Q8.52 0.20 6.63 0.20L6.63 0.20Q5.18 0.20 4.24-0.87L4.24-0.87L4.24 4.06L0.95 4.06L0.95-10.57L4.02-10.57L4.12-9.59Q5.07-10.76 6.61-10.76L6.61-10.76Q8.56-10.76 9.65-9.32Q10.73-7.88 10.73-5.36L10.73-5.36ZM7.44-5.06L7.44-5.41Q7.44-8.22 5.80-8.22L5.80-8.22Q4.63-8.22 4.24-7.38L4.24-7.38L4.24-3.22Q4.67-2.34 5.82-2.34L5.82-2.34Q7.39-2.34 7.44-5.06L7.44-5.06ZM18.57 0L18.48-1.14Q17.43 0.20 15.65 0.20L15.65 0.20Q13.92 0.20 13.02-0.82Q12.13-1.83 12.13-3.72L12.13-3.72L12.13-10.57L15.42-10.57L15.42-3.70Q15.42-2.34 16.74-2.34L16.74-2.34Q17.87-2.34 18.35-3.15L18.35-3.15L18.35-10.57L21.66-10.57L21.66 0L18.57 0ZM26.93-15L26.93 0L23.63 0L23.63-15L26.93-15ZM34.49-2.97L34.49-2.97Q34.49-3.39 34.05-3.64Q33.61-3.90 32.38-4.17Q31.15-4.44 30.35-4.89Q29.55-5.33 29.13-5.97Q28.71-6.60 28.71-7.42L28.71-7.42Q28.71-8.88 29.91-9.82Q31.11-10.76 33.06-10.76L33.06-10.76Q35.15-10.76 36.42-9.81Q37.69-8.87 37.69-7.32L37.69-7.32L34.38-7.32Q34.38-8.59 33.05-8.59L33.05-8.59Q32.53-8.59 32.18-8.31Q31.83-8.02 31.83-7.59L31.83-7.59Q31.83-7.15 32.26-6.88Q32.69-6.60 33.63-6.43Q34.57-6.25 35.28-6.01L35.28-6.01Q37.67-5.19 37.67-3.07L37.67-3.07Q37.67-1.62 36.38-0.71Q35.10 0.20 33.06 0.20L33.06 0.20Q31.70 0.20 30.63-0.29Q29.57-0.78 28.97-1.62Q28.38-2.46 28.38-3.39L28.38-3.39L31.46-3.39Q31.47-2.66 31.94-2.32Q32.41-1.98 33.14-1.98L33.14-1.98Q33.82-1.98 34.16-2.26Q34.49-2.53 34.49-2.97ZM44.32 0.20L44.32 0.20Q41.88 0.20 40.38-1.25Q38.88-2.71 38.88-5.03L38.88-5.03L38.88-5.30Q38.88-6.92 39.48-8.16Q40.08-9.40 41.23-10.08Q42.38-10.76 43.96-10.76L43.96-10.76Q46.19-10.76 47.48-9.38Q48.77-8.00 48.77-5.53L48.77-5.53L48.77-4.25L42.23-4.25Q42.40-3.36 43.00-2.85Q43.59-2.34 44.54-2.34L44.54-2.34Q46.10-2.34 46.98-3.44L46.98-3.44L48.49-1.66Q47.87-0.81 46.74-0.31Q45.62 0.20 44.32 0.20ZM43.95-8.22L43.95-8.22Q42.50-8.22 42.23-6.31L42.23-6.31L45.55-6.31L45.55-6.56Q45.57-7.35 45.15-7.79Q44.73-8.22 43.95-8.22ZM54.56-2.34L54.56-2.34Q55.25-2.34 55.63-2.72Q56.02-3.10 56.01-3.77L56.01-3.77L59.09-3.77Q59.09-2.03 57.85-0.92Q56.60 0.20 54.64 0.20L54.64 0.20Q52.33 0.20 51.01-1.25Q49.68-2.70 49.68-5.25L49.68-5.25L49.68-5.39Q49.68-6.99 50.27-8.22Q50.86-9.44 51.97-10.10Q53.09-10.76 54.61-10.76L54.61-10.76Q56.67-10.76 57.88-9.62Q59.09-8.48 59.09-6.52L59.09-6.52L56.01-6.52Q56.01-7.34 55.61-7.78Q55.21-8.22 54.53-8.22L54.53-8.22Q53.25-8.22 53.04-6.59L53.04-6.59Q52.97-6.07 52.97-5.17L52.97-5.17Q52.97-3.57 53.35-2.96Q53.73-2.34 54.56-2.34ZM63.70-15L63.70-9.43Q64.76-10.76 66.40-10.76L66.40-10.76Q68.14-10.76 69.03-9.73Q69.92-8.69 69.94-6.67L69.94-6.67L69.94 0L66.64 0L66.64-6.59Q66.64-7.43 66.30-7.83Q65.96-8.22 65.14-8.22L65.14-8.22Q64.12-8.22 63.70-7.58L63.70-7.58L63.70 0L60.41 0L60.41-15L63.70-15ZM81.02 0L77.72 0Q77.55-0.32 77.41-0.95L77.41-0.95Q76.50 0.20 74.87 0.20L74.87 0.20Q73.38 0.20 72.33-0.71Q71.29-1.61 71.29-2.98L71.29-2.98Q71.29-4.70 72.56-5.58Q73.83-6.46 76.25-6.46L76.25-6.46L77.27-6.46L77.27-7.01Q77.27-8.47 76.01-8.47L76.01-8.47Q74.83-8.47 74.83-7.31L74.83-7.31L71.54-7.31Q71.54-8.85 72.85-9.80Q74.15-10.76 76.17-10.76Q78.19-10.76 79.37-9.78Q80.54-8.79 80.57-7.07L80.57-7.07L80.57-2.39Q80.59-0.94 81.02-0.17L81.02-0.17L81.02 0ZM75.66-2.15L75.66-2.15Q76.28-2.15 76.68-2.41Q77.09-2.68 77.27-3.01L77.27-3.01L77.27-4.70L76.31-4.70Q74.59-4.70 74.59-3.15L74.59-3.15Q74.59-2.71 74.89-2.43Q75.20-2.15 75.66-2.15ZM82.93-13.19L86.22-13.19L86.22-10.57L87.96-10.57L87.96-8.28L86.22-8.28L86.22-3.45Q86.22-2.85 86.44-2.62Q86.65-2.38 87.29-2.38L87.29-2.38Q87.77-2.38 88.11-2.44L88.11-2.44L88.11-0.09Q87.22 0.20 86.25 0.20L86.25 0.20Q84.55 0.20 83.74-0.61Q82.93-1.41 82.93-3.04L82.93-3.04L82.93-8.28L81.58-8.28L81.58-10.57L82.93-10.57L82.93-13.19Z"></path></g></g></svg>